<svg width="28" height="38" viewBox="0 0 28 38" fill="none" xmlns="http://www.w3.org/2000/svg">
<path fill-rule="evenodd" clip-rule="evenodd" d="M13.718 0C14.0584 0.0671218 14.3927 0.160838 14.6878 0.347656C15.6359 0.946306 15.5044 1.55764 15.5921 2.52637C15.9586 6.59046 19.1641 8.56063 21.8811 11.0459C24.2287 13.1933 25.8712 15.6566 26.5921 18.7939C26.6164 18.9002 26.6349 19.0076 26.6565 19.1143C26.729 19.4298 26.7993 19.7776 26.8587 20.1377C26.862 20.1541 26.8651 20.1711 26.8684 20.1875V20.1992C26.9301 20.5811 26.984 20.9742 27.0198 21.3545C27.2663 23.9604 26.8373 26.5946 26.47 27.5771C26.4392 27.6997 26.4098 27.8226 26.3762 27.9443C24.5112 34.7076 18.4824 38.8275 11.4505 37.8594C6.47808 37.1743 2.46111 33.5452 0.807891 28.9121C0.364172 28.1275 -0.221294 25.407 0.0852346 22.7178C0.229606 21.4492 0.591669 20.0282 0.909453 19.4424C1.37281 18.2818 2.00272 17.1825 2.71414 16.249C3.39624 15.3541 4.36668 13.9885 5.64676 14.833C6.5968 15.4601 6.33679 16.5915 6.41238 17.5645C6.63191 20.3946 7.83432 23.7257 10.6155 24.9297C13.4589 26.1607 16.6284 24.2956 15.8362 21.0078C15.1238 18.0483 11.6319 16.0367 9.91141 13.6172C7.11693 9.68712 8.74076 5.03995 11.3411 1.51562C11.8702 0.797838 12.4747 0.0986023 13.4319 0H13.718Z" fill="#AE3D1F"/>
</svg>
