<svg width="13" height="16" viewBox="0 0 13 16" fill="none" xmlns="http://www.w3.org/2000/svg">
<path d="M6.4537 0.000848595L6.4677 0.000604649C10.9815 -0.0606887 14.3433 4.54928 12.4719 8.6896C11.4442 10.9635 8.2878 14.2106 6.52977 15.961C6.50165 15.9835 6.47231 16.0187 6.43981 15.988C4.9107 14.5451 3.22107 12.5645 1.98175 10.914C0.885998 9.45487 0.035293 8.14885 0.00100924 6.27563C-0.0630576 2.77378 2.93197 0.0469622 6.4537 0.000848595ZM6.26933 3.61064C4.67389 3.81658 3.53302 5.10808 3.7605 6.70675C3.96387 8.13557 5.27332 9.07128 6.71669 8.98913C9.22763 8.66374 10.1658 5.64346 8.10182 4.13654C7.59851 3.76905 6.90189 3.5448 6.26933 3.61064Z" fill="#00C86B"/>
</svg>
