<svg width="23" height="41" viewBox="0 0 23 41" fill="none" xmlns="http://www.w3.org/2000/svg">
<path d="M21.4982 14.4623C21.312 13.9941 21.3057 13.6053 21.2997 13.2287C21.2871 12.4541 21.2757 11.722 19.688 10.6008C19.8946 9.86663 19.9143 9.36276 19.7488 9.06138C19.6136 8.815 19.3856 8.75385 19.2346 8.71317C19.184 8.69971 19.1315 8.68538 19.1095 8.67075C18.7867 8.45041 18.5358 7.6197 18.37 7.0699C18.2479 6.66581 18.1806 6.45074 18.0996 6.3615C17.3683 5.5539 16.6681 5.18141 16.0185 5.25369C15.2632 5.33767 14.8301 5.99808 14.7153 6.19822L14.7141 6.19998C14.0766 7.06873 13.4115 6.82791 12.7685 6.595C12.3956 6.4601 12.0436 6.33253 11.7551 6.48468C11.5672 6.58358 11.4315 6.78899 11.3407 7.11232C11.0683 8.08407 10.7381 8.61808 10.4104 8.61808C10.4087 8.61808 10.4067 8.61808 10.4053 8.61808C10.0965 8.61281 9.82468 8.13996 9.80177 8.04662C9.5271 6.41738 9.86192 6.25382 10.5296 5.92844C10.6705 5.85968 10.83 5.78184 10.997 5.68323C11.0334 5.66187 11.0546 5.6212 11.0514 5.57819C10.9798 4.60469 11.1007 4.04815 11.1889 3.64143C11.2931 3.16184 11.3559 2.87275 10.9159 2.4511C10.7458 2.28783 10.4067 2.32821 10.014 2.37473C9.4048 2.44642 8.96858 2.46954 8.90786 2.10671C8.83855 1.6915 8.64722 1.28243 8.36911 0.9553C8.07267 0.60622 7.70491 0.375354 7.30564 0.287864C6.79897 0.176381 5.79794 0.217931 4.79032 1.74739C4.35296 2.4116 3.58364 2.4552 2.83953 2.49734C2.21972 2.53245 1.63371 2.56551 1.32982 2.98453C1.09067 3.31371 1.06346 3.82138 1.24418 4.58274C1.25908 4.64477 1.22385 4.70856 1.16399 4.72758C1.12962 4.7387 1.10298 4.76621 1.0921 4.80132C1.0815 4.83672 1.08866 4.87506 1.11071 4.90373C1.22299 5.04828 1.28629 5.0989 1.35331 5.15215C1.40515 5.1937 1.45871 5.23642 1.55094 5.33503C1.6761 5.46934 1.71878 5.53722 1.7331 5.56853C1.67983 5.58433 1.55781 5.59077 1.45728 5.59575C1.17229 5.61008 0.78162 5.62998 0.420161 5.82515C0.330799 5.87343 0.270365 5.95916 0.254326 6.06099C0.238 6.16165 0.26836 6.26172 0.337387 6.33575C0.595735 6.61314 0.803388 6.82498 0.970083 6.99557C1.51399 7.55182 1.6973 7.73909 2.19366 8.65231C2.27901 8.80915 2.31424 8.95516 2.3552 9.12458C2.47864 9.63371 2.63159 10.2637 4.24126 11.5737L3.7154 11.818C3.6753 11.8367 3.65038 11.8777 3.65152 11.9225C3.66527 12.4509 3.6753 12.8258 3.68246 13.0926C3.6942 13.5365 3.6985 13.696 3.6985 13.7346C3.66126 13.8423 3.48225 13.9918 3.32386 14.1238C3.10103 14.3099 2.8908 14.4854 2.88393 14.675C2.82922 16.2136 3.58794 16.6879 4.25758 17.1063C4.84675 17.4744 5.31217 17.7655 5.19646 18.6943C5.02404 20.0833 5.17727 20.4388 5.51353 21.218C5.62924 21.4866 5.77331 21.8205 5.9337 22.2693C6.42491 23.6411 4.94499 25.2633 4.23381 26.0428C3.95885 26.3439 3.87121 26.4434 3.86032 26.5273C3.53639 28.9718 3.04461 30.4316 2.71924 31.3972C2.30422 32.6294 2.14898 33.0902 3.1228 33.6198C3.22218 33.674 3.29436 33.6198 3.34592 33.5672C3.39948 33.5124 3.4791 33.4106 3.63749 33.2073C3.69506 33.1332 3.76323 33.046 3.844 32.9433C3.93622 33.022 3.99924 33.0776 4.05652 33.128C4.17452 33.2318 4.25988 33.307 4.50705 33.5016C5.07703 33.9502 5.16696 34.2486 5.27093 34.5945C5.356 34.8772 5.45252 35.1976 5.80854 35.6286C6.16341 36.0575 6.35674 36.5468 6.51226 36.94C6.67524 37.3523 6.78322 37.6244 7.00576 37.6496C7.18134 37.6692 7.35548 37.5238 7.60781 37.1484C7.73183 36.9637 7.79284 36.9515 7.8083 36.9517C7.88134 36.9547 8.00765 37.1765 8.11907 37.3722C8.13912 37.4076 8.16031 37.4445 8.18208 37.4825C8.43957 37.9296 8.8291 37.9928 9.11379 38.0394C9.42083 38.0894 9.56089 38.1122 9.5397 38.4572C9.53311 38.562 9.51277 38.9324 9.5228 39.3043C9.54256 40.0595 9.66973 40.2011 9.79117 40.2403C9.81151 40.2468 9.83127 40.25 9.85075 40.25C10.0011 40.25 10.1271 40.0698 10.2122 39.9264C10.4067 39.5987 10.5204 39.4705 10.6473 39.4374C10.7859 39.4014 10.9767 39.4629 11.3301 39.584C11.6294 39.6867 11.9035 39.6244 12.1232 39.4041C12.4998 39.0257 12.6115 38.272 12.4755 37.8322C12.405 37.604 12.2704 37.4618 12.0963 37.4319C11.9089 37.4 11.8233 37.2215 11.6987 36.9324C11.516 36.507 11.2651 35.925 10.3371 35.9101C9.42799 35.8954 9.3793 35.7722 9.10893 35.0873C9.08401 35.0235 9.0568 34.9553 9.0273 34.8824C8.93622 34.6571 8.84743 34.4813 8.76895 34.3265C8.49141 33.7767 8.35164 33.5007 8.69362 32.1155C8.70823 32.0573 8.67472 31.9979 8.61829 31.9809L7.56141 31.6667C7.53707 31.3633 7.48752 30.8369 7.39987 30.2718C7.37896 30.1381 7.30908 30.0688 7.25437 30.0342C7.05273 29.9078 6.70817 30.0214 6.34328 30.1416C6.0285 30.2455 5.6364 30.3748 5.51668 30.2549C5.47371 30.2118 5.41929 30.0802 5.53644 29.6816C5.68652 29.1716 5.59029 28.673 5.50551 28.2329C5.38607 27.6147 5.28296 27.0807 5.82658 26.6201C6.96251 25.6574 6.99889 24.6427 7.02552 23.9018C7.03984 23.5076 7.05102 23.196 7.22859 23.0377C7.79456 22.5333 8.08584 22.1084 8.14513 21.7011C8.19984 21.3274 8.05061 21.0182 7.90626 20.7191C7.79026 20.4786 7.66996 20.2302 7.64505 19.9364C7.60695 19.4931 7.67598 19.3254 7.74014 19.2631C7.81919 19.1861 7.95953 19.206 8.10761 19.2271C8.24538 19.2467 8.38801 19.2669 8.50573 19.2069C8.82681 19.0439 9.27333 18.9023 9.47439 19.0401C9.56748 19.1036 9.60758 19.2356 9.59412 19.4313C9.56462 19.8612 9.40565 20.2129 9.27791 20.4956C9.14988 20.7791 9.05737 20.9839 9.16048 21.1443C9.24182 21.2707 9.42141 21.321 9.76024 21.3122C9.96417 21.307 10.1575 21.3011 10.3405 21.2955C11.6228 21.2563 12.3967 21.2323 12.973 21.5454C13.5226 21.8439 13.9279 22.4709 14.4687 23.8591C14.6044 24.2073 14.8805 24.3471 15.0939 24.3621C15.2912 24.3758 15.468 24.2874 15.5539 24.1321C15.6209 24.0112 15.6894 23.7458 15.4001 23.3218C15.085 22.8601 15.0888 22.7267 15.0985 22.3706C15.1022 22.2333 15.1071 22.0625 15.0945 21.8342C15.0902 21.7514 15.0111 21.6388 14.7015 21.2294C14.4747 20.9289 14.1315 20.4751 14.0989 20.3212C14.0302 19.9967 14.1106 19.8919 14.2321 19.7333C14.3415 19.5902 14.4775 19.4126 14.5073 19.0501C14.538 18.6773 15.384 17.9595 15.791 17.6143C15.999 17.4378 16.066 17.3799 16.0912 17.3354C16.6537 16.3476 18.099 16.2399 20.2703 17.0247C20.4181 17.0779 20.4304 17.0823 20.4694 17.0709C21.2602 16.8397 21.6474 16.6092 21.807 16.2744C21.9977 15.8741 21.8591 15.3708 21.4979 14.4623H21.4982ZM21.6105 16.1767C21.483 16.4441 21.1428 16.6393 20.4382 16.8476C20.4155 16.84 20.3792 16.8269 20.3434 16.814C17.464 15.7738 16.3404 16.4588 15.905 17.219C15.8807 17.2479 15.7641 17.3468 15.6518 17.4422C15.0114 17.9856 14.3252 18.6012 14.2899 19.0311C14.2656 19.3272 14.1613 19.4635 14.0602 19.5952C13.9299 19.7652 13.7953 19.9414 13.8858 20.3686C13.9259 20.557 14.1777 20.9011 14.5291 21.3658C14.6726 21.556 14.8505 21.7909 14.8774 21.8562C14.8885 22.0704 14.8843 22.2331 14.8802 22.3644C14.8699 22.7396 14.8651 22.9274 15.2214 23.4497C15.3826 23.6861 15.4347 23.8948 15.3643 24.0221C15.3193 24.1034 15.2239 24.147 15.1091 24.1391C14.9622 24.1289 14.7703 24.0282 14.672 23.7763C14.1023 22.3141 13.6847 21.6786 13.0758 21.3479C12.4483 21.007 11.6526 21.0316 10.3342 21.072C10.1515 21.0776 9.95844 21.0834 9.7548 21.0887C9.42799 21.0975 9.35811 21.0448 9.34322 21.0217C9.30684 20.9652 9.39706 20.7656 9.4764 20.5895C9.60443 20.3059 9.77972 19.9177 9.81237 19.4471C9.83184 19.1657 9.75909 18.9661 9.59641 18.8546C9.24526 18.6144 8.59853 18.9105 8.40864 19.0071C8.35135 19.036 8.2428 19.0205 8.13797 19.0056C7.96297 18.9807 7.74529 18.95 7.58977 19.101C7.4414 19.2452 7.38985 19.5168 7.42737 19.9557C7.45601 20.2916 7.58518 20.5593 7.71035 20.818C7.9919 21.4015 8.21444 21.8623 7.0851 22.8692C6.8362 23.091 6.82303 23.4632 6.80756 23.8939C6.78236 24.5926 6.74827 25.5492 5.68738 26.448C5.0438 26.9938 5.16954 27.6457 5.29127 28.2763C5.37519 28.7111 5.46197 29.1608 5.32735 29.6176C5.20935 30.0181 5.22109 30.2715 5.36402 30.4146C5.57768 30.6291 5.98239 30.4957 6.41087 30.3543C6.6844 30.2642 7.02438 30.1519 7.14038 30.2247C7.15642 30.2347 7.17589 30.2534 7.1842 30.3069C7.27872 30.9153 7.32855 31.4791 7.35004 31.7612C7.35347 31.8077 7.38469 31.8469 7.42851 31.8598L8.45675 32.1659C8.12795 33.5438 8.28863 33.8621 8.57504 34.4292C8.65152 34.5802 8.7383 34.7516 8.82566 34.9685C8.85459 35.0404 8.88151 35.108 8.90643 35.1709C9.2086 35.9364 9.31858 36.1175 10.3336 36.1339C11.1216 36.1465 11.3135 36.5918 11.4988 37.0226C11.6265 37.3193 11.7471 37.5993 12.0602 37.6525C12.1742 37.6718 12.2357 37.7974 12.267 37.8995C12.3835 38.277 12.281 38.9321 11.97 39.2449C11.8107 39.4047 11.6188 39.4474 11.3997 39.3722C10.6504 39.1153 10.4571 39.0822 10.0255 39.8108C9.93008 39.9714 9.87395 40.013 9.85504 40.0232C9.83242 39.9966 9.75336 39.8605 9.74076 39.2613C9.7336 38.9105 9.75251 38.5684 9.75852 38.4718C9.79232 37.9244 9.45034 37.8685 9.14902 37.8193C8.86748 37.7734 8.57648 37.726 8.37111 37.3696C8.34963 37.3321 8.32872 37.2956 8.30868 37.2604C8.13597 36.9561 8.0108 36.7367 7.81747 36.7291C7.81403 36.7291 7.81117 36.7291 7.80773 36.7291C7.64648 36.7291 7.52045 36.8856 7.42851 37.0226C7.17446 37.4006 7.06534 37.4322 7.03039 37.4281C6.93759 37.4179 6.82475 37.1329 6.71591 36.8569C6.56325 36.4707 6.35388 35.9417 5.97666 35.4852C5.64929 35.0893 5.56365 34.8046 5.48116 34.5298C5.37089 34.1635 5.26663 33.8173 4.64138 33.3255C4.39907 33.135 4.31544 33.0612 4.2003 32.9597C4.12612 32.8948 4.04248 32.8207 3.89899 32.6999C3.87636 32.6809 3.84743 32.6721 3.81822 32.675C3.78929 32.6782 3.76265 32.6926 3.74432 32.7163C3.63233 32.8585 3.54154 32.9746 3.46793 33.0691C3.33246 33.243 3.24109 33.36 3.19641 33.4071C2.42022 32.9767 2.52075 32.6782 2.92717 31.4715C3.25512 30.4986 3.75034 29.0283 4.07714 26.5677C4.10321 26.5165 4.25157 26.3538 4.39535 26.1964C5.13603 25.3844 6.67781 23.6943 6.14078 22.1936C5.97752 21.738 5.83202 21.4003 5.71488 21.1291C5.38578 20.3662 5.24974 20.0508 5.415 18.7235C5.54818 17.6511 4.95072 17.2778 4.37301 16.9164C3.72456 16.5111 3.05406 16.0921 3.10389 14.6841C3.10704 14.5957 3.31327 14.4234 3.46363 14.2976C3.669 14.1261 3.8629 13.9643 3.91245 13.7887C3.91761 13.7703 3.91417 13.5365 3.90214 13.0873C3.89555 12.8331 3.8861 12.4811 3.87321 11.9912L4.49646 11.7019C4.5314 11.6855 4.55517 11.6518 4.55975 11.6132C4.56405 11.5743 4.54858 11.5359 4.51822 11.5117C2.83552 10.1718 2.68744 9.56173 2.56858 9.07132C2.52562 8.8943 2.48523 8.72693 2.38556 8.54405C1.87459 7.60361 1.67066 7.39527 1.12561 6.83815C0.959772 6.66844 0.752979 6.45718 0.496349 6.18242C0.46742 6.15111 0.467993 6.11571 0.470571 6.09757C0.475726 6.06567 0.494916 6.03875 0.522985 6.02354C0.841482 5.85148 1.20409 5.83305 1.46902 5.81959C1.71477 5.8073 1.89263 5.79823 1.94705 5.65924C1.99832 5.52845 1.89407 5.37951 1.7099 5.18171C1.60679 5.0711 1.54406 5.02107 1.48879 4.97688C1.44697 4.94382 1.41145 4.91543 1.36276 4.8616C1.44697 4.77908 1.48678 4.65414 1.45728 4.53124C1.29545 3.84859 1.31149 3.38686 1.50597 3.11912C1.74885 2.78438 2.26039 2.75541 2.85213 2.72206C3.61229 2.67875 4.47412 2.62989 4.9722 1.87408C5.66504 0.81953 6.47761 0.334389 7.25953 0.506149C7.95638 0.659182 8.55872 1.34827 8.69219 2.14445C8.73744 2.41511 8.91645 2.57692 9.22493 2.62579C9.46809 2.66412 9.75823 2.62959 10.0384 2.59653C10.3345 2.56171 10.6696 2.52221 10.7659 2.61409C11.115 2.94883 11.0766 3.1241 10.9749 3.59256C10.891 3.97968 10.765 4.56021 10.828 5.52376C10.6908 5.60189 10.5611 5.66509 10.435 5.72654C10.0896 5.89508 9.79117 6.0408 9.6262 6.37905C9.45778 6.72462 9.44547 7.25073 9.5861 8.08436C9.6093 8.2216 9.93152 8.81588 10.3809 8.84104C10.3909 8.84134 10.4007 8.84163 10.4107 8.84163C10.8569 8.84163 11.2402 8.28099 11.5506 7.17406C11.624 6.91277 11.7233 6.75242 11.8548 6.68307C12.0593 6.57539 12.354 6.68219 12.6952 6.80597C13.0154 6.92184 13.3786 7.05322 13.7538 7.03156C14.1934 7.00582 14.5658 6.77641 14.892 6.32989C14.8931 6.32814 14.8974 6.32229 14.9034 6.31146C15.0051 6.13385 15.3881 5.54864 16.042 5.47578C16.6191 5.4117 17.2572 5.76078 17.9392 6.51336C17.9899 6.56954 18.0807 6.87063 18.1609 7.13602C18.3568 7.78473 18.6005 8.59233 18.988 8.85655C19.0405 8.89225 19.1078 8.9101 19.1791 8.92941C19.3148 8.96569 19.4684 9.00695 19.5583 9.17052C19.6969 9.42333 19.6628 9.90935 19.4563 10.6148C19.4426 10.6616 19.4603 10.712 19.4996 10.7395C21.0588 11.8215 21.0692 12.4755 21.0812 13.2325C21.0875 13.6105 21.0941 14.0398 21.2957 14.5463C21.6251 15.3747 21.7643 15.8542 21.6108 16.1764L21.6105 16.1767Z" fill="#FFB08F" stroke="#A2431C" stroke-width="0.5"/>
</svg>
