<svg width="14" height="19" viewBox="0 0 14 19" fill="none" xmlns="http://www.w3.org/2000/svg">
<g filter="url(#filter0_f_227_4317)">
<path d="M6.93744 0.337283C7.48038 0.343322 12.9888 8.94376 12.9888 12.2861C12.9887 13.0808 12.8322 13.8677 12.5281 14.6018C12.2239 15.336 11.7782 16.0031 11.2163 16.565C10.0814 17.6998 8.5422 18.3373 6.93728 18.3373C5.33237 18.3372 3.79321 17.6997 2.65839 16.5648C1.52358 15.4299 0.886068 13.8907 0.886108 12.2858C0.886108 8.94376 6.39449 0.331245 6.93744 0.337283Z" fill="#8EDEFC"/>
<g filter="url(#filter1_f_227_4317)">
<path d="M2.324 14.5474C2.92865 14.7322 3.69712 13.9718 4.04043 12.8489C4.38373 11.726 4.17187 10.6658 3.56723 10.481C2.96258 10.2961 2.19411 11.0565 1.8508 12.1794C1.50749 13.3024 1.71935 14.3625 2.324 14.5474Z" fill="white"/>
</g>
</g>
<defs>
<filter id="filter0_f_227_4317" x="0.548836" y="7.62939e-06" width="12.7772" height="18.6745" filterUnits="userSpaceOnUse" color-interpolation-filters="sRGB">
<feFlood flood-opacity="0" result="BackgroundImageFix"/>
<feBlend mode="normal" in="SourceGraphic" in2="BackgroundImageFix" result="shape"/>
<feGaussianBlur stdDeviation="0.168636" result="effect1_foregroundBlur_227_4317"/>
</filter>
<filter id="filter1_f_227_4317" x="3.8147e-05" y="8.76688" width="5.89116" height="7.49455" filterUnits="userSpaceOnUse" color-interpolation-filters="sRGB">
<feFlood flood-opacity="0" result="BackgroundImageFix"/>
<feBlend mode="normal" in="SourceGraphic" in2="BackgroundImageFix" result="shape"/>
<feGaussianBlur stdDeviation="0.843182" result="effect1_foregroundBlur_227_4317"/>
</filter>
</defs>
</svg>
